<svg xmlns="http://www.w3.org/2000/svg" xml:space="preserve" width="7.11111in" height="7.11111in" version="1.1" style="shape-rendering:geometricPrecision; text-rendering:geometricPrecision; image-rendering:optimizeQuality; fill-rule:evenodd; clip-rule:evenodd" viewBox="0 0 7111 7111" xmlns:xlink="http://www.w3.org/1999/xlink">
<defs>
<style type="text/css">
   
    .fil0 {fill:black}
   
  </style>
</defs>
<g id="Layer_x0020_1">
<metadata id="CorelCorpID_0Corel-Layer"></metadata>
<g id="_329469808">
<g>
<g>
<path class="fil0" d="M2904 5210c-4,0 -8,0 -12,0 -617,-2 -1195,-247 -1630,-685 -895,-906 -887,-2370 18,-3267 0,0 0,0 0,0 905,-896 2371,-887 3267,18 434,439 670,1020 668,1637 -3,616 -248,1195 -686,1630 -436,430 -1012,667 -1625,667zm-1488 -3813c-829,820 -837,2163 -17,2992 398,401 928,624 1493,627 4,0 8,0 12,0 561,0 1089,-216 1487,-611 402,-397 625,-927 628,-1492 3,-565 -214,-1097 -611,-1500 -822,-829 -2163,-835 -2992,-16l0 0z" id="id_101" style="fill: rgb(211, 211, 211);"></path>
</g>
<g>
<path class="fil0" d="M6395 7110c-163,0 -327,-57 -460,-192l-1517 -1544c-536,328 -1172,474 -1801,413 -665,-66 -1291,-363 -1765,-835 -547,-548 -848,-1276 -848,-2050 0,-775 301,-1503 848,-2051 0,0 0,0 0,0 549,-548 1276,-850 2051,-850 775,0 1502,302 2051,849 476,476 773,1108 835,1777 60,634 -91,1274 -427,1810l1519 1544c150,151 227,322 226,494 -3,152 -68,300 -186,417 -135,133 -329,218 -526,218zm-1963 -1956c25,0 50,9 69,29l1573 1599c210,211 532,150 711,-28 69,-69 272,-319 -42,-636l-1574 -1599c-32,-33 -38,-83 -11,-122 709,-1068 565,-2501 -342,-3410 -1055,-1054 -2771,-1054 -3826,0 -1054,1055 -1054,2771 0,3826 521,521 1217,790 1919,790 509,0 1021,-143 1470,-434 16,-11 35,-15 53,-15z" id="id_102" style="fill: rgb(214, 214, 214);"></path>
</g>
<g>
<path class="fil0" d="M4625 3574l-3444 0c-54,0 -97,-43 -97,-98 0,-54 43,-97 97,-97l3444 0c54,0 97,43 97,97 0,55 -45,98 -97,98z" id="id_103" style="fill: rgb(214, 214, 214);"></path>
</g>
<g>
<g>
<path class="fil0" d="M2089 3574l-613 0c-54,0 -97,-43 -97,-98l0 -1114c0,-55 43,-98 97,-98l613 0c55,0 98,43 98,98l0 1114c0,53 -43,98 -98,98zm-516 -195l419 0 0 -920 -419 0 0 920z" id="id_104" style="fill: rgb(211, 211, 211);"></path>
</g>
<g>
<path class="fil0" d="M3210 3572l-614 0c-54,0 -97,-43 -97,-97l0 -1812c0,-54 43,-97 97,-97l614 0c54,0 97,43 97,97l0 1812c0,54 -43,97 -97,97zm-517 -194l420 0 0 -1618 -420 0 0 1618z" id="id_105" style="fill: rgb(211, 211, 211);"></path>
</g>
<g>
<path class="fil0" d="M4332 3574l-614 0c-54,0 -97,-43 -97,-98l0 -1468c0,-55 43,-98 97,-98l614 0c54,0 97,43 97,98l0 1468c0,53 -45,98 -97,98zm-518 -195l419 0 0 -1274 -419 0 0 1274z" id="id_106" style="fill: rgb(214, 214, 214);"></path>
</g>
</g>
<g>
<path class="fil0" d="M4255 3969l-2704 0c-54,0 -97,-43 -97,-97 0,-54 43,-97 97,-97l2704 0c54,0 97,43 97,97 0,54 -43,97 -97,97z" id="id_107" style="fill: rgb(214, 214, 214);"></path>
</g>
</g>
</g>
</g>
</svg>